<mxfile host="app.diagrams.net" modified="2021-11-01T22:03:30.075Z" agent="5.0 (X11; Linux x86_64) AppleWebKit/537.36 (KHTML, like Gecko) Chrome/94.0.4606.71 Safari/537.36" etag="DQp8tddhaCRS55pQl2jd" version="15.6.4" type="github">
  <diagram id="R2lEEEUBdFMjLlhIrx00" name="Page-1">
    <mxGraphModel dx="1422" dy="799" grid="1" gridSize="10" guides="1" tooltips="1" connect="1" arrows="1" fold="1" page="1" pageScale="1" pageWidth="850" pageHeight="1100" math="0" shadow="0" extFonts="Permanent Marker^https://fonts.googleapis.com/css?family=Permanent+Marker">
      <root>
        <mxCell id="0" />
        <mxCell id="1" parent="0" />
        <mxCell id="C-vyLk0tnHw3VtMMgP7b-1" value="" style="edgeStyle=entityRelationEdgeStyle;endArrow=ERzeroToMany;startArrow=ERone;endFill=1;startFill=0;strokeColor=default;labelBackgroundColor=default;fontColor=default;entryX=0;entryY=0.5;entryDx=0;entryDy=0;" parent="1" source="C-vyLk0tnHw3VtMMgP7b-24" target="Fk1rj7K9F4PNxC_N-SPY-49" edge="1">
          <mxGeometry width="100" height="100" relative="1" as="geometry">
            <mxPoint x="340" y="720" as="sourcePoint" />
            <mxPoint x="450" y="195" as="targetPoint" />
          </mxGeometry>
        </mxCell>
        <mxCell id="C-vyLk0tnHw3VtMMgP7b-23" value="ClimbInfo" style="shape=table;startSize=30;container=1;collapsible=1;childLayout=tableLayout;fixedRows=1;rowLines=0;fontStyle=1;align=center;resizeLast=1;fontColor=default;fillColor=default;strokeColor=default;" parent="1" vertex="1">
          <mxGeometry x="100" y="125" width="250" height="260" as="geometry" />
        </mxCell>
        <mxCell id="C-vyLk0tnHw3VtMMgP7b-24" value="" style="shape=partialRectangle;collapsible=0;dropTarget=0;pointerEvents=0;fillColor=none;points=[[0,0.5],[1,0.5]];portConstraint=eastwest;top=0;left=0;right=0;bottom=1;fontColor=default;" parent="C-vyLk0tnHw3VtMMgP7b-23" vertex="1">
          <mxGeometry y="30" width="250" height="30" as="geometry" />
        </mxCell>
        <mxCell id="C-vyLk0tnHw3VtMMgP7b-25" value="PK" style="shape=partialRectangle;overflow=hidden;connectable=0;fillColor=none;top=0;left=0;bottom=0;right=0;fontStyle=1;" parent="C-vyLk0tnHw3VtMMgP7b-24" vertex="1">
          <mxGeometry width="30" height="30" as="geometry">
            <mxRectangle width="30" height="30" as="alternateBounds" />
          </mxGeometry>
        </mxCell>
        <mxCell id="C-vyLk0tnHw3VtMMgP7b-26" value="climb_id INT NOT NULL " style="shape=partialRectangle;overflow=hidden;connectable=0;fillColor=none;top=0;left=0;bottom=0;right=0;align=left;spacingLeft=6;fontStyle=5;fontColor=default;" parent="C-vyLk0tnHw3VtMMgP7b-24" vertex="1">
          <mxGeometry x="30" width="220" height="30" as="geometry">
            <mxRectangle width="220" height="30" as="alternateBounds" />
          </mxGeometry>
        </mxCell>
        <mxCell id="C-vyLk0tnHw3VtMMgP7b-27" value="" style="shape=partialRectangle;collapsible=0;dropTarget=0;pointerEvents=0;fillColor=none;points=[[0,0.5],[1,0.5]];portConstraint=eastwest;top=0;left=0;right=0;bottom=0;" parent="C-vyLk0tnHw3VtMMgP7b-23" vertex="1">
          <mxGeometry y="60" width="250" height="30" as="geometry" />
        </mxCell>
        <mxCell id="C-vyLk0tnHw3VtMMgP7b-28" value="" style="shape=partialRectangle;overflow=hidden;connectable=0;fillColor=none;top=0;left=0;bottom=0;right=0;" parent="C-vyLk0tnHw3VtMMgP7b-27" vertex="1">
          <mxGeometry width="30" height="30" as="geometry">
            <mxRectangle width="30" height="30" as="alternateBounds" />
          </mxGeometry>
        </mxCell>
        <mxCell id="C-vyLk0tnHw3VtMMgP7b-29" value="climb_name TEXT NOT NULL" style="shape=partialRectangle;overflow=hidden;connectable=0;fillColor=none;top=0;left=0;bottom=0;right=0;align=left;spacingLeft=6;fontColor=default;" parent="C-vyLk0tnHw3VtMMgP7b-27" vertex="1">
          <mxGeometry x="30" width="220" height="30" as="geometry">
            <mxRectangle width="220" height="30" as="alternateBounds" />
          </mxGeometry>
        </mxCell>
        <mxCell id="Fk1rj7K9F4PNxC_N-SPY-1" value="climb_type TEXT" style="shape=partialRectangle;overflow=hidden;connectable=0;fillColor=none;top=0;left=0;bottom=0;right=0;align=left;spacingLeft=6;fontColor=default;strokeColor=default;" vertex="1" parent="1">
          <mxGeometry x="130" y="210" width="220" height="30" as="geometry">
            <mxRectangle width="220" height="30" as="alternateBounds" />
          </mxGeometry>
        </mxCell>
        <mxCell id="Fk1rj7K9F4PNxC_N-SPY-2" value="grade TEXT" style="shape=partialRectangle;overflow=hidden;connectable=0;fillColor=none;top=0;left=0;bottom=0;right=0;align=left;spacingLeft=6;fontColor=default;strokeColor=default;" vertex="1" parent="1">
          <mxGeometry x="130" y="240" width="220" height="30" as="geometry">
            <mxRectangle width="220" height="30" as="alternateBounds" />
          </mxGeometry>
        </mxCell>
        <mxCell id="Fk1rj7K9F4PNxC_N-SPY-3" value="quality REAL &#xa;CHECK(quality &gt;= 0 AND quality &lt;=5)" style="shape=partialRectangle;overflow=hidden;connectable=0;fillColor=none;top=0;left=0;bottom=0;right=0;align=left;spacingLeft=6;fontColor=default;strokeColor=default;" vertex="1" parent="1">
          <mxGeometry x="130" y="270" width="210" height="30" as="geometry">
            <mxRectangle width="220" height="30" as="alternateBounds" />
          </mxGeometry>
        </mxCell>
        <mxCell id="Fk1rj7K9F4PNxC_N-SPY-4" value="height CHECK(height&gt;=0)" style="shape=partialRectangle;overflow=hidden;connectable=0;fillColor=none;top=0;left=0;bottom=0;right=0;align=left;spacingLeft=6;fontColor=default;strokeColor=default;" vertex="1" parent="1">
          <mxGeometry x="130" y="300" width="220" height="30" as="geometry">
            <mxRectangle width="220" height="30" as="alternateBounds" />
          </mxGeometry>
        </mxCell>
        <mxCell id="Fk1rj7K9F4PNxC_N-SPY-5" value="description TEXT" style="shape=partialRectangle;overflow=hidden;connectable=0;fillColor=none;top=0;left=0;bottom=0;right=0;align=left;spacingLeft=6;fontColor=default;strokeColor=default;" vertex="1" parent="1">
          <mxGeometry x="130" y="330" width="220" height="30" as="geometry">
            <mxRectangle width="220" height="30" as="alternateBounds" />
          </mxGeometry>
        </mxCell>
        <mxCell id="Fk1rj7K9F4PNxC_N-SPY-21" value="feature_description TEXT" style="shape=partialRectangle;overflow=hidden;connectable=0;fillColor=none;top=0;left=0;bottom=0;right=0;align=left;spacingLeft=6;fontStyle=0;fontColor=default;strokeColor=default;" vertex="1" parent="1">
          <mxGeometry x="130" y="640" width="210" height="30" as="geometry">
            <mxRectangle width="180" height="30" as="alternateBounds" />
          </mxGeometry>
        </mxCell>
        <mxCell id="Fk1rj7K9F4PNxC_N-SPY-34" value="Book" style="shape=table;startSize=30;container=1;collapsible=1;childLayout=tableLayout;fixedRows=1;rowLines=0;fontStyle=1;align=center;resizeLast=1;fontColor=default;fillColor=none;strokeColor=default;" vertex="1" parent="1">
          <mxGeometry x="120" y="910" width="250" height="150" as="geometry" />
        </mxCell>
        <mxCell id="Fk1rj7K9F4PNxC_N-SPY-35" value="" style="shape=partialRectangle;collapsible=0;dropTarget=0;pointerEvents=0;fillColor=none;points=[[0,0.5],[1,0.5]];portConstraint=eastwest;top=0;left=0;right=0;bottom=1;fontColor=default;" vertex="1" parent="Fk1rj7K9F4PNxC_N-SPY-34">
          <mxGeometry y="30" width="250" height="30" as="geometry" />
        </mxCell>
        <mxCell id="Fk1rj7K9F4PNxC_N-SPY-36" value="PK" style="shape=partialRectangle;overflow=hidden;connectable=0;fillColor=none;top=0;left=0;bottom=0;right=0;fontStyle=1;" vertex="1" parent="Fk1rj7K9F4PNxC_N-SPY-35">
          <mxGeometry width="30" height="30" as="geometry">
            <mxRectangle width="30" height="30" as="alternateBounds" />
          </mxGeometry>
        </mxCell>
        <mxCell id="Fk1rj7K9F4PNxC_N-SPY-37" value="book_name TEXT NOT NULL " style="shape=partialRectangle;overflow=hidden;connectable=0;fillColor=none;top=0;left=0;bottom=0;right=0;align=left;spacingLeft=6;fontStyle=5;fontColor=default;" vertex="1" parent="Fk1rj7K9F4PNxC_N-SPY-35">
          <mxGeometry x="30" width="220" height="30" as="geometry">
            <mxRectangle width="220" height="30" as="alternateBounds" />
          </mxGeometry>
        </mxCell>
        <mxCell id="Fk1rj7K9F4PNxC_N-SPY-38" value="" style="shape=partialRectangle;collapsible=0;dropTarget=0;pointerEvents=0;fillColor=none;points=[[0,0.5],[1,0.5]];portConstraint=eastwest;top=0;left=0;right=0;bottom=0;" vertex="1" parent="Fk1rj7K9F4PNxC_N-SPY-34">
          <mxGeometry y="60" width="250" height="30" as="geometry" />
        </mxCell>
        <mxCell id="Fk1rj7K9F4PNxC_N-SPY-39" value="" style="shape=partialRectangle;overflow=hidden;connectable=0;fillColor=none;top=0;left=0;bottom=0;right=0;" vertex="1" parent="Fk1rj7K9F4PNxC_N-SPY-38">
          <mxGeometry width="30" height="30" as="geometry">
            <mxRectangle width="30" height="30" as="alternateBounds" />
          </mxGeometry>
        </mxCell>
        <mxCell id="Fk1rj7K9F4PNxC_N-SPY-40" value="book_description TEXT" style="shape=partialRectangle;overflow=hidden;connectable=0;fillColor=none;top=0;left=0;bottom=0;right=0;align=left;spacingLeft=6;fontColor=default;strokeColor=none;" vertex="1" parent="Fk1rj7K9F4PNxC_N-SPY-38">
          <mxGeometry x="30" width="220" height="30" as="geometry">
            <mxRectangle width="220" height="30" as="alternateBounds" />
          </mxGeometry>
        </mxCell>
        <mxCell id="Fk1rj7K9F4PNxC_N-SPY-41" value="" style="group;fontColor=default;" vertex="1" connectable="0" parent="1">
          <mxGeometry x="115" y="730" width="250" height="130" as="geometry" />
        </mxCell>
        <mxCell id="Fk1rj7K9F4PNxC_N-SPY-22" value="Areas" style="shape=table;startSize=30;container=1;collapsible=1;childLayout=tableLayout;fixedRows=1;rowLines=0;fontStyle=1;align=center;resizeLast=1;fontColor=default;fillColor=default;strokeColor=default;movable=1;resizable=1;rotatable=1;deletable=1;editable=1;connectable=1;" vertex="1" parent="Fk1rj7K9F4PNxC_N-SPY-41">
          <mxGeometry width="250" height="130" as="geometry" />
        </mxCell>
        <mxCell id="Fk1rj7K9F4PNxC_N-SPY-23" value="" style="shape=partialRectangle;collapsible=0;dropTarget=0;pointerEvents=0;fillColor=none;points=[[0,0.5],[1,0.5]];portConstraint=eastwest;top=0;left=0;right=0;bottom=1;fontColor=default;" vertex="1" parent="Fk1rj7K9F4PNxC_N-SPY-22">
          <mxGeometry y="30" width="250" height="30" as="geometry" />
        </mxCell>
        <mxCell id="Fk1rj7K9F4PNxC_N-SPY-24" value="PK" style="shape=partialRectangle;overflow=hidden;connectable=0;fillColor=none;top=0;left=0;bottom=0;right=0;fontStyle=1;" vertex="1" parent="Fk1rj7K9F4PNxC_N-SPY-23">
          <mxGeometry width="30" height="30" as="geometry">
            <mxRectangle width="30" height="30" as="alternateBounds" />
          </mxGeometry>
        </mxCell>
        <mxCell id="Fk1rj7K9F4PNxC_N-SPY-25" value="area_id INT NOT NULL " style="shape=partialRectangle;overflow=hidden;connectable=0;fillColor=none;top=0;left=0;bottom=0;right=0;align=left;spacingLeft=6;fontStyle=5;fontColor=default;" vertex="1" parent="Fk1rj7K9F4PNxC_N-SPY-23">
          <mxGeometry x="30" width="220" height="30" as="geometry">
            <mxRectangle width="220" height="30" as="alternateBounds" />
          </mxGeometry>
        </mxCell>
        <mxCell id="Fk1rj7K9F4PNxC_N-SPY-26" value="" style="shape=partialRectangle;collapsible=0;dropTarget=0;pointerEvents=0;fillColor=none;points=[[0,0.5],[1,0.5]];portConstraint=eastwest;top=0;left=0;right=0;bottom=0;" vertex="1" parent="Fk1rj7K9F4PNxC_N-SPY-22">
          <mxGeometry y="60" width="250" height="30" as="geometry" />
        </mxCell>
        <mxCell id="Fk1rj7K9F4PNxC_N-SPY-27" value="" style="shape=partialRectangle;overflow=hidden;connectable=0;fillColor=none;top=0;left=0;bottom=0;right=0;" vertex="1" parent="Fk1rj7K9F4PNxC_N-SPY-26">
          <mxGeometry width="30" height="30" as="geometry">
            <mxRectangle width="30" height="30" as="alternateBounds" />
          </mxGeometry>
        </mxCell>
        <mxCell id="Fk1rj7K9F4PNxC_N-SPY-28" value="area_name TEXT NOT NULL" style="shape=partialRectangle;overflow=hidden;connectable=0;fillColor=none;top=0;left=0;bottom=0;right=0;align=left;spacingLeft=6;fontColor=default;strokeColor=default;" vertex="1" parent="Fk1rj7K9F4PNxC_N-SPY-26">
          <mxGeometry x="30" width="220" height="30" as="geometry">
            <mxRectangle width="220" height="30" as="alternateBounds" />
          </mxGeometry>
        </mxCell>
        <mxCell id="Fk1rj7K9F4PNxC_N-SPY-29" value="area_quality REAL&#xa;" style="shape=partialRectangle;overflow=hidden;connectable=1;fillColor=none;top=0;left=0;bottom=0;right=0;align=left;spacingLeft=6;fontColor=default;strokeColor=default;movable=1;resizable=1;rotatable=1;deletable=1;editable=1;" vertex="1" parent="Fk1rj7K9F4PNxC_N-SPY-41">
          <mxGeometry x="30" y="90" width="220" height="20" as="geometry">
            <mxRectangle width="220" height="30" as="alternateBounds" />
          </mxGeometry>
        </mxCell>
        <mxCell id="Fk1rj7K9F4PNxC_N-SPY-33" value="area_description TEXT&#xa;&#xa;" style="shape=partialRectangle;overflow=hidden;connectable=1;fillColor=none;top=0;left=0;bottom=0;right=0;align=left;spacingLeft=6;fontColor=default;strokeColor=default;movable=1;resizable=1;rotatable=1;deletable=1;editable=1;" vertex="1" parent="Fk1rj7K9F4PNxC_N-SPY-41">
          <mxGeometry x="30" y="110" width="220" height="20" as="geometry">
            <mxRectangle width="220" height="30" as="alternateBounds" />
          </mxGeometry>
        </mxCell>
        <mxCell id="Fk1rj7K9F4PNxC_N-SPY-42" value="" style="group;fontColor=default;" vertex="1" connectable="0" parent="1">
          <mxGeometry x="100" y="410" width="210" height="110" as="geometry" />
        </mxCell>
        <mxCell id="Fk1rj7K9F4PNxC_N-SPY-6" value="Faces" style="shape=table;startSize=30;container=1;collapsible=1;childLayout=tableLayout;fixedRows=1;rowLines=0;fontStyle=1;align=center;resizeLast=1;fontColor=default;fillColor=default;strokeColor=default;" vertex="1" parent="Fk1rj7K9F4PNxC_N-SPY-42">
          <mxGeometry width="210" height="110" as="geometry" />
        </mxCell>
        <mxCell id="Fk1rj7K9F4PNxC_N-SPY-7" value="" style="shape=partialRectangle;collapsible=0;dropTarget=0;pointerEvents=0;fillColor=none;points=[[0,0.5],[1,0.5]];portConstraint=eastwest;top=0;left=0;right=0;bottom=1;fontColor=default;" vertex="1" parent="Fk1rj7K9F4PNxC_N-SPY-6">
          <mxGeometry y="30" width="210" height="30" as="geometry" />
        </mxCell>
        <mxCell id="Fk1rj7K9F4PNxC_N-SPY-8" value="PK" style="shape=partialRectangle;overflow=hidden;connectable=0;fillColor=none;top=0;left=0;bottom=0;right=0;fontStyle=1;" vertex="1" parent="Fk1rj7K9F4PNxC_N-SPY-7">
          <mxGeometry width="30" height="30" as="geometry">
            <mxRectangle width="30" height="30" as="alternateBounds" />
          </mxGeometry>
        </mxCell>
        <mxCell id="Fk1rj7K9F4PNxC_N-SPY-9" value="face_id INT NOT NULL " style="shape=partialRectangle;overflow=hidden;connectable=0;fillColor=none;top=0;left=0;bottom=0;right=0;align=left;spacingLeft=6;fontStyle=5;fontColor=default;" vertex="1" parent="Fk1rj7K9F4PNxC_N-SPY-7">
          <mxGeometry x="30" width="180" height="30" as="geometry">
            <mxRectangle width="180" height="30" as="alternateBounds" />
          </mxGeometry>
        </mxCell>
        <mxCell id="Fk1rj7K9F4PNxC_N-SPY-10" value="" style="shape=partialRectangle;collapsible=0;dropTarget=0;pointerEvents=0;fillColor=none;points=[[0,0.5],[1,0.5]];portConstraint=eastwest;top=0;left=0;right=0;bottom=0;" vertex="1" parent="Fk1rj7K9F4PNxC_N-SPY-6">
          <mxGeometry y="60" width="210" height="30" as="geometry" />
        </mxCell>
        <mxCell id="Fk1rj7K9F4PNxC_N-SPY-11" value="" style="shape=partialRectangle;overflow=hidden;connectable=0;fillColor=none;top=0;left=0;bottom=0;right=0;" vertex="1" parent="Fk1rj7K9F4PNxC_N-SPY-10">
          <mxGeometry width="30" height="30" as="geometry">
            <mxRectangle width="30" height="30" as="alternateBounds" />
          </mxGeometry>
        </mxCell>
        <mxCell id="Fk1rj7K9F4PNxC_N-SPY-12" value="face_name TEXT NOT NULL" style="shape=partialRectangle;overflow=hidden;connectable=0;fillColor=none;top=0;left=0;bottom=0;right=0;align=left;spacingLeft=6;fontColor=default;strokeColor=default;" vertex="1" parent="Fk1rj7K9F4PNxC_N-SPY-10">
          <mxGeometry x="30" width="180" height="30" as="geometry">
            <mxRectangle width="180" height="30" as="alternateBounds" />
          </mxGeometry>
        </mxCell>
        <mxCell id="Fk1rj7K9F4PNxC_N-SPY-13" value="face_description TEXT" style="shape=partialRectangle;overflow=hidden;connectable=0;fillColor=default;top=0;left=0;bottom=0;right=0;align=left;spacingLeft=6;fontColor=default;strokeColor=default;" vertex="1" parent="Fk1rj7K9F4PNxC_N-SPY-42">
          <mxGeometry x="30" y="80" width="180" height="30" as="geometry">
            <mxRectangle width="180" height="30" as="alternateBounds" />
          </mxGeometry>
        </mxCell>
        <mxCell id="Fk1rj7K9F4PNxC_N-SPY-43" value="" style="group;fontColor=default;" vertex="1" connectable="0" parent="1">
          <mxGeometry x="100" y="560" width="250" height="150" as="geometry" />
        </mxCell>
        <mxCell id="Fk1rj7K9F4PNxC_N-SPY-32" value="location TEXT" style="shape=partialRectangle;overflow=hidden;connectable=0;fillColor=none;top=0;left=0;bottom=0;right=0;align=left;spacingLeft=6;fontStyle=0;fontColor=default;strokeColor=none;" vertex="1" parent="Fk1rj7K9F4PNxC_N-SPY-43">
          <mxGeometry x="30" y="120" width="210" height="30" as="geometry">
            <mxRectangle width="180" height="30" as="alternateBounds" />
          </mxGeometry>
        </mxCell>
        <mxCell id="Fk1rj7K9F4PNxC_N-SPY-44" value="" style="group" vertex="1" connectable="0" parent="Fk1rj7K9F4PNxC_N-SPY-43">
          <mxGeometry width="250" height="150" as="geometry" />
        </mxCell>
        <mxCell id="Fk1rj7K9F4PNxC_N-SPY-14" value="Features&#xa;" style="shape=table;startSize=30;container=1;collapsible=1;childLayout=tableLayout;fixedRows=1;rowLines=0;fontStyle=1;align=center;resizeLast=1;fontColor=default;fillColor=default;strokeColor=default;" vertex="1" parent="Fk1rj7K9F4PNxC_N-SPY-44">
          <mxGeometry width="250" height="150" as="geometry" />
        </mxCell>
        <mxCell id="Fk1rj7K9F4PNxC_N-SPY-15" value="" style="shape=partialRectangle;collapsible=0;dropTarget=0;pointerEvents=0;fillColor=none;points=[[0,0.5],[1,0.5]];portConstraint=eastwest;top=0;left=0;right=0;bottom=1;fontColor=default;" vertex="1" parent="Fk1rj7K9F4PNxC_N-SPY-14">
          <mxGeometry y="30" width="250" height="30" as="geometry" />
        </mxCell>
        <mxCell id="Fk1rj7K9F4PNxC_N-SPY-16" value="PK" style="shape=partialRectangle;overflow=hidden;connectable=0;fillColor=none;top=0;left=0;bottom=0;right=0;fontStyle=1;" vertex="1" parent="Fk1rj7K9F4PNxC_N-SPY-15">
          <mxGeometry width="30" height="30" as="geometry">
            <mxRectangle width="30" height="30" as="alternateBounds" />
          </mxGeometry>
        </mxCell>
        <mxCell id="Fk1rj7K9F4PNxC_N-SPY-17" value="feature_id INT NOT NULL " style="shape=partialRectangle;overflow=hidden;connectable=0;fillColor=none;top=0;left=0;bottom=0;right=0;align=left;spacingLeft=6;fontStyle=5;fontColor=default;" vertex="1" parent="Fk1rj7K9F4PNxC_N-SPY-15">
          <mxGeometry x="30" width="220" height="30" as="geometry">
            <mxRectangle width="220" height="30" as="alternateBounds" />
          </mxGeometry>
        </mxCell>
        <mxCell id="Fk1rj7K9F4PNxC_N-SPY-18" value="" style="shape=partialRectangle;collapsible=0;dropTarget=0;pointerEvents=0;fillColor=none;points=[[0,0.5],[1,0.5]];portConstraint=eastwest;top=0;left=0;right=0;bottom=0;" vertex="1" parent="Fk1rj7K9F4PNxC_N-SPY-14">
          <mxGeometry y="60" width="250" height="30" as="geometry" />
        </mxCell>
        <mxCell id="Fk1rj7K9F4PNxC_N-SPY-19" value="" style="shape=partialRectangle;overflow=hidden;connectable=0;fillColor=none;top=0;left=0;bottom=0;right=0;" vertex="1" parent="Fk1rj7K9F4PNxC_N-SPY-18">
          <mxGeometry width="30" height="30" as="geometry">
            <mxRectangle width="30" height="30" as="alternateBounds" />
          </mxGeometry>
        </mxCell>
        <mxCell id="Fk1rj7K9F4PNxC_N-SPY-20" value="feature_name TEXT NOT NULL" style="shape=partialRectangle;overflow=hidden;connectable=0;fillColor=none;top=0;left=0;bottom=0;right=0;align=left;spacingLeft=6;fontColor=default;strokeColor=default;" vertex="1" parent="Fk1rj7K9F4PNxC_N-SPY-18">
          <mxGeometry x="30" width="220" height="30" as="geometry">
            <mxRectangle width="220" height="30" as="alternateBounds" />
          </mxGeometry>
        </mxCell>
        <mxCell id="Fk1rj7K9F4PNxC_N-SPY-31" value="gps TEXT" style="shape=partialRectangle;overflow=hidden;connectable=0;fillColor=none;top=0;left=0;bottom=0;right=0;align=left;spacingLeft=6;fontStyle=0;fontColor=default;strokeColor=none;" vertex="1" parent="Fk1rj7K9F4PNxC_N-SPY-44">
          <mxGeometry x="30" y="100" width="210" height="30" as="geometry">
            <mxRectangle width="180" height="30" as="alternateBounds" />
          </mxGeometry>
        </mxCell>
        <mxCell id="Fk1rj7K9F4PNxC_N-SPY-67" value="" style="group;strokeColor=default;fontColor=default;" vertex="1" connectable="0" parent="1">
          <mxGeometry x="460" y="410" width="260" height="120" as="geometry" />
        </mxCell>
        <mxCell id="Fk1rj7K9F4PNxC_N-SPY-55" value="feature_id INT NOT NULL" style="shape=partialRectangle;overflow=hidden;connectable=0;fillColor=none;top=0;left=0;bottom=0;right=0;align=left;spacingLeft=6;fontColor=default;strokeColor=default;" vertex="1" parent="Fk1rj7K9F4PNxC_N-SPY-67">
          <mxGeometry x="40" y="90" width="220" height="30" as="geometry">
            <mxRectangle width="220" height="30" as="alternateBounds" />
          </mxGeometry>
        </mxCell>
        <mxCell id="Fk1rj7K9F4PNxC_N-SPY-78" value="" style="group" vertex="1" connectable="0" parent="Fk1rj7K9F4PNxC_N-SPY-67">
          <mxGeometry width="260" height="120" as="geometry" />
        </mxCell>
        <mxCell id="Fk1rj7K9F4PNxC_N-SPY-48" value="ClimbLocations" style="shape=table;startSize=30;container=1;collapsible=1;childLayout=tableLayout;fixedRows=1;rowLines=0;fontStyle=1;align=center;resizeLast=1;fontColor=default;fillColor=default;strokeColor=default;" vertex="1" parent="Fk1rj7K9F4PNxC_N-SPY-78">
          <mxGeometry width="260" height="120" as="geometry" />
        </mxCell>
        <mxCell id="Fk1rj7K9F4PNxC_N-SPY-49" value="" style="shape=partialRectangle;collapsible=0;dropTarget=0;pointerEvents=0;fillColor=none;points=[[0,0.5],[1,0.5]];portConstraint=eastwest;top=0;left=0;right=0;bottom=1;fontColor=default;" vertex="1" parent="Fk1rj7K9F4PNxC_N-SPY-48">
          <mxGeometry y="30" width="260" height="30" as="geometry" />
        </mxCell>
        <mxCell id="Fk1rj7K9F4PNxC_N-SPY-50" value="PKFK1" style="shape=partialRectangle;overflow=hidden;connectable=0;fillColor=none;top=0;left=0;bottom=0;right=0;fontStyle=1;fontColor=default;" vertex="1" parent="Fk1rj7K9F4PNxC_N-SPY-49">
          <mxGeometry width="50" height="30" as="geometry">
            <mxRectangle width="50" height="30" as="alternateBounds" />
          </mxGeometry>
        </mxCell>
        <mxCell id="Fk1rj7K9F4PNxC_N-SPY-51" value="climb_id INT NOT NULL " style="shape=partialRectangle;overflow=hidden;connectable=0;fillColor=none;top=0;left=0;bottom=0;right=0;align=left;spacingLeft=6;fontStyle=5;fontColor=default;" vertex="1" parent="Fk1rj7K9F4PNxC_N-SPY-49">
          <mxGeometry x="50" width="210" height="30" as="geometry">
            <mxRectangle width="210" height="30" as="alternateBounds" />
          </mxGeometry>
        </mxCell>
        <mxCell id="Fk1rj7K9F4PNxC_N-SPY-52" value="" style="shape=partialRectangle;collapsible=0;dropTarget=0;pointerEvents=0;fillColor=none;points=[[0,0.5],[1,0.5]];portConstraint=eastwest;top=0;left=0;right=0;bottom=0;strokeColor=default;fontColor=default;" vertex="1" parent="Fk1rj7K9F4PNxC_N-SPY-48">
          <mxGeometry y="60" width="260" height="30" as="geometry" />
        </mxCell>
        <mxCell id="Fk1rj7K9F4PNxC_N-SPY-53" value="FK2" style="shape=partialRectangle;overflow=hidden;connectable=0;fillColor=none;top=0;left=0;bottom=0;right=0;fontColor=default;strokeColor=default;" vertex="1" parent="Fk1rj7K9F4PNxC_N-SPY-52">
          <mxGeometry width="50" height="30" as="geometry">
            <mxRectangle width="50" height="30" as="alternateBounds" />
          </mxGeometry>
        </mxCell>
        <mxCell id="Fk1rj7K9F4PNxC_N-SPY-54" value="face_id INT" style="shape=partialRectangle;overflow=hidden;connectable=0;fillColor=none;top=0;left=0;bottom=0;right=0;align=left;spacingLeft=6;fontColor=default;" vertex="1" parent="Fk1rj7K9F4PNxC_N-SPY-52">
          <mxGeometry x="50" width="210" height="30" as="geometry">
            <mxRectangle width="210" height="30" as="alternateBounds" />
          </mxGeometry>
        </mxCell>
        <mxCell id="Fk1rj7K9F4PNxC_N-SPY-57" value="FK3" style="shape=partialRectangle;overflow=hidden;connectable=0;fillColor=none;top=0;left=0;bottom=0;right=0;fontColor=default;strokeColor=default;" vertex="1" parent="Fk1rj7K9F4PNxC_N-SPY-78">
          <mxGeometry x="10" y="85" width="30" height="30" as="geometry">
            <mxRectangle width="30" height="30" as="alternateBounds" />
          </mxGeometry>
        </mxCell>
        <mxCell id="Fk1rj7K9F4PNxC_N-SPY-69" value="" style="group;strokeColor=default;fontColor=default;" vertex="1" connectable="0" parent="1">
          <mxGeometry x="480" y="620" width="260" height="90" as="geometry" />
        </mxCell>
        <mxCell id="Fk1rj7K9F4PNxC_N-SPY-70" value="AreaFeatures" style="shape=table;startSize=30;container=1;collapsible=1;childLayout=tableLayout;fixedRows=1;rowLines=0;fontStyle=1;align=center;resizeLast=1;fontColor=default;fillColor=default;strokeColor=default;" vertex="1" parent="Fk1rj7K9F4PNxC_N-SPY-69">
          <mxGeometry width="260" height="90" as="geometry" />
        </mxCell>
        <mxCell id="Fk1rj7K9F4PNxC_N-SPY-71" value="" style="shape=partialRectangle;collapsible=0;dropTarget=0;pointerEvents=0;fillColor=none;points=[[0,0.5],[1,0.5]];portConstraint=eastwest;top=0;left=0;right=0;bottom=1;fontColor=default;" vertex="1" parent="Fk1rj7K9F4PNxC_N-SPY-70">
          <mxGeometry y="30" width="260" height="30" as="geometry" />
        </mxCell>
        <mxCell id="Fk1rj7K9F4PNxC_N-SPY-72" value="PKFK1" style="shape=partialRectangle;overflow=hidden;connectable=0;fillColor=none;top=0;left=0;bottom=0;right=0;fontStyle=1;fontColor=default;" vertex="1" parent="Fk1rj7K9F4PNxC_N-SPY-71">
          <mxGeometry width="40" height="30" as="geometry">
            <mxRectangle width="40" height="30" as="alternateBounds" />
          </mxGeometry>
        </mxCell>
        <mxCell id="Fk1rj7K9F4PNxC_N-SPY-73" value="feature_id INT NOT NULL " style="shape=partialRectangle;overflow=hidden;connectable=0;fillColor=none;top=0;left=0;bottom=0;right=0;align=left;spacingLeft=6;fontStyle=5;fontColor=default;" vertex="1" parent="Fk1rj7K9F4PNxC_N-SPY-71">
          <mxGeometry x="40" width="220" height="30" as="geometry">
            <mxRectangle width="220" height="30" as="alternateBounds" />
          </mxGeometry>
        </mxCell>
        <mxCell id="Fk1rj7K9F4PNxC_N-SPY-74" value="" style="shape=partialRectangle;collapsible=0;dropTarget=0;pointerEvents=0;fillColor=none;points=[[0,0.5],[1,0.5]];portConstraint=eastwest;top=0;left=0;right=0;bottom=0;strokeColor=default;fontColor=default;" vertex="1" parent="Fk1rj7K9F4PNxC_N-SPY-70">
          <mxGeometry y="60" width="260" height="30" as="geometry" />
        </mxCell>
        <mxCell id="Fk1rj7K9F4PNxC_N-SPY-75" value="FK2" style="shape=partialRectangle;overflow=hidden;connectable=0;fillColor=none;top=0;left=0;bottom=0;right=0;fontColor=default;strokeColor=default;" vertex="1" parent="Fk1rj7K9F4PNxC_N-SPY-74">
          <mxGeometry width="40" height="30" as="geometry">
            <mxRectangle width="40" height="30" as="alternateBounds" />
          </mxGeometry>
        </mxCell>
        <mxCell id="Fk1rj7K9F4PNxC_N-SPY-76" value="area_id INT NOT NULL" style="shape=partialRectangle;overflow=hidden;connectable=0;fillColor=none;top=0;left=0;bottom=0;right=0;align=left;spacingLeft=6;fontColor=default;" vertex="1" parent="Fk1rj7K9F4PNxC_N-SPY-74">
          <mxGeometry x="40" width="220" height="30" as="geometry">
            <mxRectangle width="220" height="30" as="alternateBounds" />
          </mxGeometry>
        </mxCell>
        <mxCell id="Fk1rj7K9F4PNxC_N-SPY-77" value="" style="shape=partialRectangle;overflow=hidden;connectable=0;fillColor=none;top=0;left=0;bottom=0;right=0;align=left;spacingLeft=6;fontColor=default;strokeColor=default;" vertex="1" parent="Fk1rj7K9F4PNxC_N-SPY-69">
          <mxGeometry x="40" y="67.5" width="220" height="22.5" as="geometry">
            <mxRectangle width="220" height="30" as="alternateBounds" />
          </mxGeometry>
        </mxCell>
        <mxCell id="Fk1rj7K9F4PNxC_N-SPY-79" value="" style="edgeStyle=entityRelationEdgeStyle;endArrow=ERzeroToMany;startArrow=ERone;endFill=1;startFill=0;strokeColor=default;labelBackgroundColor=default;fontColor=default;exitX=1;exitY=0.5;exitDx=0;exitDy=0;entryX=0;entryY=0.5;entryDx=0;entryDy=0;" edge="1" parent="1" source="Fk1rj7K9F4PNxC_N-SPY-7" target="Fk1rj7K9F4PNxC_N-SPY-52">
          <mxGeometry width="100" height="100" relative="1" as="geometry">
            <mxPoint x="350" y="197.5" as="sourcePoint" />
            <mxPoint x="450" y="222.5" as="targetPoint" />
          </mxGeometry>
        </mxCell>
        <mxCell id="Fk1rj7K9F4PNxC_N-SPY-80" value="" style="edgeStyle=entityRelationEdgeStyle;endArrow=ERzeroToMany;startArrow=ERone;endFill=1;startFill=0;strokeColor=default;labelBackgroundColor=default;fontColor=default;exitX=1;exitY=0.5;exitDx=0;exitDy=0;" edge="1" parent="1" source="Fk1rj7K9F4PNxC_N-SPY-15">
          <mxGeometry width="100" height="100" relative="1" as="geometry">
            <mxPoint x="320" y="482.5" as="sourcePoint" />
            <mxPoint x="460" y="510" as="targetPoint" />
          </mxGeometry>
        </mxCell>
        <mxCell id="Fk1rj7K9F4PNxC_N-SPY-91" value="" style="group;strokeColor=default;fontColor=default;" vertex="1" connectable="0" parent="1">
          <mxGeometry x="460" y="800" width="260" height="90" as="geometry" />
        </mxCell>
        <mxCell id="Fk1rj7K9F4PNxC_N-SPY-92" value="BookAreas" style="shape=table;startSize=30;container=1;collapsible=1;childLayout=tableLayout;fixedRows=1;rowLines=0;fontStyle=1;align=center;resizeLast=1;fontColor=default;fillColor=default;strokeColor=default;" vertex="1" parent="Fk1rj7K9F4PNxC_N-SPY-91">
          <mxGeometry width="260" height="90" as="geometry" />
        </mxCell>
        <mxCell id="Fk1rj7K9F4PNxC_N-SPY-93" value="" style="shape=partialRectangle;collapsible=0;dropTarget=0;pointerEvents=0;fillColor=none;points=[[0,0.5],[1,0.5]];portConstraint=eastwest;top=0;left=0;right=0;bottom=1;fontColor=default;" vertex="1" parent="Fk1rj7K9F4PNxC_N-SPY-92">
          <mxGeometry y="30" width="260" height="30" as="geometry" />
        </mxCell>
        <mxCell id="Fk1rj7K9F4PNxC_N-SPY-94" value="PKFK1" style="shape=partialRectangle;overflow=hidden;connectable=0;fillColor=none;top=0;left=0;bottom=0;right=0;fontStyle=1;fontColor=default;" vertex="1" parent="Fk1rj7K9F4PNxC_N-SPY-93">
          <mxGeometry width="40" height="30" as="geometry">
            <mxRectangle width="40" height="30" as="alternateBounds" />
          </mxGeometry>
        </mxCell>
        <mxCell id="Fk1rj7K9F4PNxC_N-SPY-95" value="area_id INT NOT NULL " style="shape=partialRectangle;overflow=hidden;connectable=0;fillColor=none;top=0;left=0;bottom=0;right=0;align=left;spacingLeft=6;fontStyle=5;fontColor=default;" vertex="1" parent="Fk1rj7K9F4PNxC_N-SPY-93">
          <mxGeometry x="40" width="220" height="30" as="geometry">
            <mxRectangle width="220" height="30" as="alternateBounds" />
          </mxGeometry>
        </mxCell>
        <mxCell id="Fk1rj7K9F4PNxC_N-SPY-96" value="" style="shape=partialRectangle;collapsible=0;dropTarget=0;pointerEvents=0;fillColor=none;points=[[0,0.5],[1,0.5]];portConstraint=eastwest;top=0;left=0;right=0;bottom=0;strokeColor=default;fontColor=default;" vertex="1" parent="Fk1rj7K9F4PNxC_N-SPY-92">
          <mxGeometry y="60" width="260" height="30" as="geometry" />
        </mxCell>
        <mxCell id="Fk1rj7K9F4PNxC_N-SPY-97" value="FK2" style="shape=partialRectangle;overflow=hidden;connectable=0;fillColor=none;top=0;left=0;bottom=0;right=0;fontColor=default;strokeColor=default;" vertex="1" parent="Fk1rj7K9F4PNxC_N-SPY-96">
          <mxGeometry width="40" height="30" as="geometry">
            <mxRectangle width="40" height="30" as="alternateBounds" />
          </mxGeometry>
        </mxCell>
        <mxCell id="Fk1rj7K9F4PNxC_N-SPY-98" value="book_id INT NOT NULL" style="shape=partialRectangle;overflow=hidden;connectable=0;fillColor=none;top=0;left=0;bottom=0;right=0;align=left;spacingLeft=6;fontColor=default;" vertex="1" parent="Fk1rj7K9F4PNxC_N-SPY-96">
          <mxGeometry x="40" width="220" height="30" as="geometry">
            <mxRectangle width="220" height="30" as="alternateBounds" />
          </mxGeometry>
        </mxCell>
        <mxCell id="Fk1rj7K9F4PNxC_N-SPY-102" value="" style="edgeStyle=entityRelationEdgeStyle;endArrow=ERzeroToMany;startArrow=ERone;endFill=1;startFill=0;strokeColor=default;labelBackgroundColor=default;fontColor=default;exitX=1;exitY=0.5;exitDx=0;exitDy=0;entryX=0;entryY=0.5;entryDx=0;entryDy=0;" edge="1" parent="1" source="Fk1rj7K9F4PNxC_N-SPY-15" target="Fk1rj7K9F4PNxC_N-SPY-71">
          <mxGeometry width="100" height="100" relative="1" as="geometry">
            <mxPoint x="365" y="755" as="sourcePoint" />
            <mxPoint x="475" y="660" as="targetPoint" />
          </mxGeometry>
        </mxCell>
        <mxCell id="Fk1rj7K9F4PNxC_N-SPY-103" value="" style="edgeStyle=entityRelationEdgeStyle;endArrow=ERzeroToMany;startArrow=ERone;endFill=1;startFill=0;strokeColor=default;labelBackgroundColor=default;fontColor=default;exitX=1;exitY=0.5;exitDx=0;exitDy=0;" edge="1" parent="1" source="Fk1rj7K9F4PNxC_N-SPY-23">
          <mxGeometry width="100" height="100" relative="1" as="geometry">
            <mxPoint x="370" y="795" as="sourcePoint" />
            <mxPoint x="480" y="700" as="targetPoint" />
          </mxGeometry>
        </mxCell>
        <mxCell id="Fk1rj7K9F4PNxC_N-SPY-104" value="" style="edgeStyle=entityRelationEdgeStyle;endArrow=ERzeroToMany;startArrow=ERone;endFill=1;startFill=0;strokeColor=default;labelBackgroundColor=default;fontColor=default;exitX=1;exitY=0.5;exitDx=0;exitDy=0;" edge="1" parent="1" source="Fk1rj7K9F4PNxC_N-SPY-23">
          <mxGeometry width="100" height="100" relative="1" as="geometry">
            <mxPoint x="370" y="780" as="sourcePoint" />
            <mxPoint x="460" y="840" as="targetPoint" />
          </mxGeometry>
        </mxCell>
        <mxCell id="Fk1rj7K9F4PNxC_N-SPY-105" value="" style="edgeStyle=entityRelationEdgeStyle;endArrow=ERzeroToMany;startArrow=ERone;endFill=1;startFill=0;strokeColor=default;labelBackgroundColor=default;fontColor=default;exitX=1;exitY=0.5;exitDx=0;exitDy=0;" edge="1" parent="1" source="Fk1rj7K9F4PNxC_N-SPY-35">
          <mxGeometry width="100" height="100" relative="1" as="geometry">
            <mxPoint x="350" y="965" as="sourcePoint" />
            <mxPoint x="460" y="870" as="targetPoint" />
          </mxGeometry>
        </mxCell>
      </root>
    </mxGraphModel>
  </diagram>
</mxfile>
